<mxfile host="app.diagrams.net" modified="2024-06-06T12:16:20.576Z" agent="Mozilla/5.0 (Windows NT 10.0; Win64; x64) AppleWebKit/537.36 (KHTML, like Gecko) Chrome/125.0.0.0 Safari/537.36 Edg/125.0.0.0" etag="Rr3vLSRM-UKgr3PIAxov" version="24.4.15" type="device">
  <diagram id="C5RBs43oDa-KdzZeNtuy" name="Page-1">
    <mxGraphModel dx="2140" dy="802" grid="1" gridSize="10" guides="1" tooltips="1" connect="1" arrows="1" fold="1" page="1" pageScale="1" pageWidth="1169" pageHeight="827" math="0" shadow="0">
      <root>
        <mxCell id="WIyWlLk6GJQsqaUBKTNV-0" />
        <mxCell id="WIyWlLk6GJQsqaUBKTNV-1" parent="WIyWlLk6GJQsqaUBKTNV-0" />
        <mxCell id="zkfFHV4jXpPFQw0GAbJ--17" value="&lt;&lt;Abstract&gt;&gt;&#xa;Kehidupan" style="swimlane;fontStyle=1;align=center;verticalAlign=top;childLayout=stackLayout;horizontal=1;startSize=40;horizontalStack=0;resizeParent=1;resizeLast=0;collapsible=1;marginBottom=0;rounded=0;shadow=0;strokeWidth=1;" parent="WIyWlLk6GJQsqaUBKTNV-1" vertex="1">
          <mxGeometry x="475" y="150" width="220" height="130" as="geometry">
            <mxRectangle x="550" y="140" width="160" height="26" as="alternateBounds" />
          </mxGeometry>
        </mxCell>
        <mxCell id="zkfFHV4jXpPFQw0GAbJ--18" value="   " style="text;align=left;verticalAlign=top;spacingLeft=4;spacingRight=4;overflow=hidden;rotatable=0;points=[[0,0.5],[1,0.5]];portConstraint=eastwest;" parent="zkfFHV4jXpPFQw0GAbJ--17" vertex="1">
          <mxGeometry y="40" width="220" height="26" as="geometry" />
        </mxCell>
        <mxCell id="zkfFHV4jXpPFQw0GAbJ--23" value="" style="line;html=1;strokeWidth=1;align=left;verticalAlign=middle;spacingTop=-1;spacingLeft=3;spacingRight=3;rotatable=0;labelPosition=right;points=[];portConstraint=eastwest;" parent="zkfFHV4jXpPFQw0GAbJ--17" vertex="1">
          <mxGeometry y="66" width="220" height="8" as="geometry" />
        </mxCell>
        <mxCell id="zkfFHV4jXpPFQw0GAbJ--24" value="+ prosesKehidupan() : abstract void" style="text;align=left;verticalAlign=top;spacingLeft=4;spacingRight=4;overflow=hidden;rotatable=0;points=[[0,0.5],[1,0.5]];portConstraint=eastwest;" parent="zkfFHV4jXpPFQw0GAbJ--17" vertex="1">
          <mxGeometry y="74" width="220" height="26" as="geometry" />
        </mxCell>
        <mxCell id="zkfFHV4jXpPFQw0GAbJ--25" value="+ memenuhiKriteria() : abstract void" style="text;align=left;verticalAlign=top;spacingLeft=4;spacingRight=4;overflow=hidden;rotatable=0;points=[[0,0.5],[1,0.5]];portConstraint=eastwest;" parent="zkfFHV4jXpPFQw0GAbJ--17" vertex="1">
          <mxGeometry y="100" width="220" height="26" as="geometry" />
        </mxCell>
        <mxCell id="oR5quiYIj7cI1-wCYl7w-54" style="edgeStyle=orthogonalEdgeStyle;rounded=0;orthogonalLoop=1;jettySize=auto;html=1;exitX=0.5;exitY=0;exitDx=0;exitDy=0;entryX=0.5;entryY=1;entryDx=0;entryDy=0;" parent="WIyWlLk6GJQsqaUBKTNV-1" source="oR5quiYIj7cI1-wCYl7w-0" target="zkfFHV4jXpPFQw0GAbJ--17" edge="1">
          <mxGeometry relative="1" as="geometry" />
        </mxCell>
        <mxCell id="oR5quiYIj7cI1-wCYl7w-0" value="Karyawan" style="swimlane;fontStyle=1;align=center;verticalAlign=top;childLayout=stackLayout;horizontal=1;startSize=30;horizontalStack=0;resizeParent=1;resizeLast=0;collapsible=1;marginBottom=0;rounded=0;shadow=0;strokeWidth=1;" parent="WIyWlLk6GJQsqaUBKTNV-1" vertex="1">
          <mxGeometry x="70" y="380" width="240" height="428" as="geometry">
            <mxRectangle x="550" y="140" width="160" height="26" as="alternateBounds" />
          </mxGeometry>
        </mxCell>
        <mxCell id="oR5quiYIj7cI1-wCYl7w-1" value="+ nama : String" style="text;align=left;verticalAlign=top;spacingLeft=4;spacingRight=4;overflow=hidden;rotatable=0;points=[[0,0.5],[1,0.5]];portConstraint=eastwest;" parent="oR5quiYIj7cI1-wCYl7w-0" vertex="1">
          <mxGeometry y="30" width="240" height="26" as="geometry" />
        </mxCell>
        <mxCell id="oR5quiYIj7cI1-wCYl7w-2" value="+ jabatan : String" style="text;align=left;verticalAlign=top;spacingLeft=4;spacingRight=4;overflow=hidden;rotatable=0;points=[[0,0.5],[1,0.5]];portConstraint=eastwest;rounded=0;shadow=0;html=0;" parent="oR5quiYIj7cI1-wCYl7w-0" vertex="1">
          <mxGeometry y="56" width="240" height="26" as="geometry" />
        </mxCell>
        <mxCell id="oR5quiYIj7cI1-wCYl7w-3" value="+ umur : int" style="text;align=left;verticalAlign=top;spacingLeft=4;spacingRight=4;overflow=hidden;rotatable=0;points=[[0,0.5],[1,0.5]];portConstraint=eastwest;rounded=0;shadow=0;html=0;" parent="oR5quiYIj7cI1-wCYl7w-0" vertex="1">
          <mxGeometry y="82" width="240" height="26" as="geometry" />
        </mxCell>
        <mxCell id="oR5quiYIj7cI1-wCYl7w-4" value="+ kehidupans : Arraylist&lt;Kehidupan&gt;" style="text;align=left;verticalAlign=top;spacingLeft=4;spacingRight=4;overflow=hidden;rotatable=0;points=[[0,0.5],[1,0.5]];portConstraint=eastwest;rounded=0;shadow=0;html=0;" parent="oR5quiYIj7cI1-wCYl7w-0" vertex="1">
          <mxGeometry y="108" width="240" height="26" as="geometry" />
        </mxCell>
        <mxCell id="oR5quiYIj7cI1-wCYl7w-6" value="" style="line;html=1;strokeWidth=1;align=left;verticalAlign=middle;spacingTop=-1;spacingLeft=3;spacingRight=3;rotatable=0;labelPosition=right;points=[];portConstraint=eastwest;" parent="oR5quiYIj7cI1-wCYl7w-0" vertex="1">
          <mxGeometry y="134" width="240" height="8" as="geometry" />
        </mxCell>
        <mxCell id="oR5quiYIj7cI1-wCYl7w-8" value="+ addKehidupan(Kehidupan) : void" style="text;align=left;verticalAlign=top;spacingLeft=4;spacingRight=4;overflow=hidden;rotatable=0;points=[[0,0.5],[1,0.5]];portConstraint=eastwest;" parent="oR5quiYIj7cI1-wCYl7w-0" vertex="1">
          <mxGeometry y="142" width="240" height="26" as="geometry" />
        </mxCell>
        <mxCell id="oR5quiYIj7cI1-wCYl7w-10" value="+ prosesKehidupan() : void" style="text;align=left;verticalAlign=top;spacingLeft=4;spacingRight=4;overflow=hidden;rotatable=0;points=[[0,0.5],[1,0.5]];portConstraint=eastwest;" parent="oR5quiYIj7cI1-wCYl7w-0" vertex="1">
          <mxGeometry y="168" width="240" height="26" as="geometry" />
        </mxCell>
        <mxCell id="oR5quiYIj7cI1-wCYl7w-11" value="+ memenuhiKriteria() : void" style="text;align=left;verticalAlign=top;spacingLeft=4;spacingRight=4;overflow=hidden;rotatable=0;points=[[0,0.5],[1,0.5]];portConstraint=eastwest;" parent="oR5quiYIj7cI1-wCYl7w-0" vertex="1">
          <mxGeometry y="194" width="240" height="26" as="geometry" />
        </mxCell>
        <mxCell id="oR5quiYIj7cI1-wCYl7w-7" value="+ getNama : String" style="text;align=left;verticalAlign=top;spacingLeft=4;spacingRight=4;overflow=hidden;rotatable=0;points=[[0,0.5],[1,0.5]];portConstraint=eastwest;" parent="oR5quiYIj7cI1-wCYl7w-0" vertex="1">
          <mxGeometry y="220" width="240" height="26" as="geometry" />
        </mxCell>
        <mxCell id="oR5quiYIj7cI1-wCYl7w-9" value="+ setNama : Void" style="text;align=left;verticalAlign=top;spacingLeft=4;spacingRight=4;overflow=hidden;rotatable=0;points=[[0,0.5],[1,0.5]];portConstraint=eastwest;" parent="oR5quiYIj7cI1-wCYl7w-0" vertex="1">
          <mxGeometry y="246" width="240" height="26" as="geometry" />
        </mxCell>
        <mxCell id="oR5quiYIj7cI1-wCYl7w-38" value="+ getJabatan : String" style="text;align=left;verticalAlign=top;spacingLeft=4;spacingRight=4;overflow=hidden;rotatable=0;points=[[0,0.5],[1,0.5]];portConstraint=eastwest;" parent="oR5quiYIj7cI1-wCYl7w-0" vertex="1">
          <mxGeometry y="272" width="240" height="26" as="geometry" />
        </mxCell>
        <mxCell id="oR5quiYIj7cI1-wCYl7w-39" value="+ setJabatan : Void" style="text;align=left;verticalAlign=top;spacingLeft=4;spacingRight=4;overflow=hidden;rotatable=0;points=[[0,0.5],[1,0.5]];portConstraint=eastwest;" parent="oR5quiYIj7cI1-wCYl7w-0" vertex="1">
          <mxGeometry y="298" width="240" height="26" as="geometry" />
        </mxCell>
        <mxCell id="oR5quiYIj7cI1-wCYl7w-40" value="+ getUmur : int" style="text;align=left;verticalAlign=top;spacingLeft=4;spacingRight=4;overflow=hidden;rotatable=0;points=[[0,0.5],[1,0.5]];portConstraint=eastwest;" parent="oR5quiYIj7cI1-wCYl7w-0" vertex="1">
          <mxGeometry y="324" width="240" height="26" as="geometry" />
        </mxCell>
        <mxCell id="oR5quiYIj7cI1-wCYl7w-41" value="+ setUmur : Void" style="text;align=left;verticalAlign=top;spacingLeft=4;spacingRight=4;overflow=hidden;rotatable=0;points=[[0,0.5],[1,0.5]];portConstraint=eastwest;" parent="oR5quiYIj7cI1-wCYl7w-0" vertex="1">
          <mxGeometry y="350" width="240" height="26" as="geometry" />
        </mxCell>
        <mxCell id="oR5quiYIj7cI1-wCYl7w-42" value="+ getGaji : double" style="text;align=left;verticalAlign=top;spacingLeft=4;spacingRight=4;overflow=hidden;rotatable=0;points=[[0,0.5],[1,0.5]];portConstraint=eastwest;" parent="oR5quiYIj7cI1-wCYl7w-0" vertex="1">
          <mxGeometry y="376" width="240" height="26" as="geometry" />
        </mxCell>
        <mxCell id="oR5quiYIj7cI1-wCYl7w-43" value="+ setGaji : Void" style="text;align=left;verticalAlign=top;spacingLeft=4;spacingRight=4;overflow=hidden;rotatable=0;points=[[0,0.5],[1,0.5]];portConstraint=eastwest;" parent="oR5quiYIj7cI1-wCYl7w-0" vertex="1">
          <mxGeometry y="402" width="240" height="26" as="geometry" />
        </mxCell>
        <mxCell id="oR5quiYIj7cI1-wCYl7w-57" style="edgeStyle=orthogonalEdgeStyle;rounded=0;orthogonalLoop=1;jettySize=auto;html=1;exitX=0.5;exitY=0;exitDx=0;exitDy=0;entryX=0.5;entryY=1;entryDx=0;entryDy=0;" parent="WIyWlLk6GJQsqaUBKTNV-1" source="oR5quiYIj7cI1-wCYl7w-12" target="zkfFHV4jXpPFQw0GAbJ--17" edge="1">
          <mxGeometry relative="1" as="geometry" />
        </mxCell>
        <mxCell id="oR5quiYIj7cI1-wCYl7w-12" value="Pengalaman" style="swimlane;fontStyle=1;align=center;verticalAlign=top;childLayout=stackLayout;horizontal=1;startSize=30;horizontalStack=0;resizeParent=1;resizeLast=0;collapsible=1;marginBottom=0;rounded=0;shadow=0;strokeWidth=1;" parent="WIyWlLk6GJQsqaUBKTNV-1" vertex="1">
          <mxGeometry x="340" y="380" width="240" height="180" as="geometry">
            <mxRectangle x="550" y="140" width="160" height="26" as="alternateBounds" />
          </mxGeometry>
        </mxCell>
        <mxCell id="oR5quiYIj7cI1-wCYl7w-13" value="+ pengalamanSebelumnya : String" style="text;align=left;verticalAlign=top;spacingLeft=4;spacingRight=4;overflow=hidden;rotatable=0;points=[[0,0.5],[1,0.5]];portConstraint=eastwest;" parent="oR5quiYIj7cI1-wCYl7w-12" vertex="1">
          <mxGeometry y="30" width="240" height="26" as="geometry" />
        </mxCell>
        <mxCell id="oR5quiYIj7cI1-wCYl7w-17" value="" style="line;html=1;strokeWidth=1;align=left;verticalAlign=middle;spacingTop=-1;spacingLeft=3;spacingRight=3;rotatable=0;labelPosition=right;points=[];portConstraint=eastwest;" parent="oR5quiYIj7cI1-wCYl7w-12" vertex="1">
          <mxGeometry y="56" width="240" height="8" as="geometry" />
        </mxCell>
        <mxCell id="oR5quiYIj7cI1-wCYl7w-19" value="+ prosesKehidupan() : void" style="text;align=left;verticalAlign=top;spacingLeft=4;spacingRight=4;overflow=hidden;rotatable=0;points=[[0,0.5],[1,0.5]];portConstraint=eastwest;" parent="oR5quiYIj7cI1-wCYl7w-12" vertex="1">
          <mxGeometry y="64" width="240" height="26" as="geometry" />
        </mxCell>
        <mxCell id="oR5quiYIj7cI1-wCYl7w-20" value="+ memenuhiKriteria() : void" style="text;align=left;verticalAlign=top;spacingLeft=4;spacingRight=4;overflow=hidden;rotatable=0;points=[[0,0.5],[1,0.5]];portConstraint=eastwest;" parent="oR5quiYIj7cI1-wCYl7w-12" vertex="1">
          <mxGeometry y="90" width="240" height="26" as="geometry" />
        </mxCell>
        <mxCell id="oR5quiYIj7cI1-wCYl7w-21" value="+ getPengalamanSebelumnya : String" style="text;align=left;verticalAlign=top;spacingLeft=4;spacingRight=4;overflow=hidden;rotatable=0;points=[[0,0.5],[1,0.5]];portConstraint=eastwest;" parent="oR5quiYIj7cI1-wCYl7w-12" vertex="1">
          <mxGeometry y="116" width="240" height="26" as="geometry" />
        </mxCell>
        <mxCell id="oR5quiYIj7cI1-wCYl7w-22" value="+ setPengalamanSebelumnya: Void" style="text;align=left;verticalAlign=top;spacingLeft=4;spacingRight=4;overflow=hidden;rotatable=0;points=[[0,0.5],[1,0.5]];portConstraint=eastwest;" parent="oR5quiYIj7cI1-wCYl7w-12" vertex="1">
          <mxGeometry y="142" width="240" height="26" as="geometry" />
        </mxCell>
        <mxCell id="oR5quiYIj7cI1-wCYl7w-58" style="edgeStyle=orthogonalEdgeStyle;rounded=0;orthogonalLoop=1;jettySize=auto;html=1;exitX=0.5;exitY=0;exitDx=0;exitDy=0;entryX=0.5;entryY=1;entryDx=0;entryDy=0;" parent="WIyWlLk6GJQsqaUBKTNV-1" source="oR5quiYIj7cI1-wCYl7w-23" target="zkfFHV4jXpPFQw0GAbJ--17" edge="1">
          <mxGeometry relative="1" as="geometry" />
        </mxCell>
        <mxCell id="oR5quiYIj7cI1-wCYl7w-23" value="Pendidikan" style="swimlane;fontStyle=1;align=center;verticalAlign=top;childLayout=stackLayout;horizontal=1;startSize=30;horizontalStack=0;resizeParent=1;resizeLast=0;collapsible=1;marginBottom=0;rounded=0;shadow=0;strokeWidth=1;" parent="WIyWlLk6GJQsqaUBKTNV-1" vertex="1">
          <mxGeometry x="610" y="380" width="240" height="180" as="geometry">
            <mxRectangle x="550" y="140" width="160" height="26" as="alternateBounds" />
          </mxGeometry>
        </mxCell>
        <mxCell id="oR5quiYIj7cI1-wCYl7w-24" value="+ pendidikanTerakhir : String" style="text;align=left;verticalAlign=top;spacingLeft=4;spacingRight=4;overflow=hidden;rotatable=0;points=[[0,0.5],[1,0.5]];portConstraint=eastwest;" parent="oR5quiYIj7cI1-wCYl7w-23" vertex="1">
          <mxGeometry y="30" width="240" height="26" as="geometry" />
        </mxCell>
        <mxCell id="oR5quiYIj7cI1-wCYl7w-25" value="" style="line;html=1;strokeWidth=1;align=left;verticalAlign=middle;spacingTop=-1;spacingLeft=3;spacingRight=3;rotatable=0;labelPosition=right;points=[];portConstraint=eastwest;" parent="oR5quiYIj7cI1-wCYl7w-23" vertex="1">
          <mxGeometry y="56" width="240" height="8" as="geometry" />
        </mxCell>
        <mxCell id="oR5quiYIj7cI1-wCYl7w-26" value="+ prosesKehidupan() : void" style="text;align=left;verticalAlign=top;spacingLeft=4;spacingRight=4;overflow=hidden;rotatable=0;points=[[0,0.5],[1,0.5]];portConstraint=eastwest;" parent="oR5quiYIj7cI1-wCYl7w-23" vertex="1">
          <mxGeometry y="64" width="240" height="26" as="geometry" />
        </mxCell>
        <mxCell id="oR5quiYIj7cI1-wCYl7w-27" value="+ memenuhiKriteria() : void" style="text;align=left;verticalAlign=top;spacingLeft=4;spacingRight=4;overflow=hidden;rotatable=0;points=[[0,0.5],[1,0.5]];portConstraint=eastwest;" parent="oR5quiYIj7cI1-wCYl7w-23" vertex="1">
          <mxGeometry y="90" width="240" height="26" as="geometry" />
        </mxCell>
        <mxCell id="oR5quiYIj7cI1-wCYl7w-28" value="+ getPendidikanTerakhir: String" style="text;align=left;verticalAlign=top;spacingLeft=4;spacingRight=4;overflow=hidden;rotatable=0;points=[[0,0.5],[1,0.5]];portConstraint=eastwest;" parent="oR5quiYIj7cI1-wCYl7w-23" vertex="1">
          <mxGeometry y="116" width="240" height="26" as="geometry" />
        </mxCell>
        <mxCell id="oR5quiYIj7cI1-wCYl7w-29" value="+ setPendidikanTerakhir: Void" style="text;align=left;verticalAlign=top;spacingLeft=4;spacingRight=4;overflow=hidden;rotatable=0;points=[[0,0.5],[1,0.5]];portConstraint=eastwest;" parent="oR5quiYIj7cI1-wCYl7w-23" vertex="1">
          <mxGeometry y="142" width="240" height="26" as="geometry" />
        </mxCell>
        <mxCell id="oR5quiYIj7cI1-wCYl7w-56" style="edgeStyle=orthogonalEdgeStyle;rounded=0;orthogonalLoop=1;jettySize=auto;html=1;exitX=0.5;exitY=0;exitDx=0;exitDy=0;entryX=0.5;entryY=1;entryDx=0;entryDy=0;" parent="WIyWlLk6GJQsqaUBKTNV-1" source="oR5quiYIj7cI1-wCYl7w-30" target="zkfFHV4jXpPFQw0GAbJ--17" edge="1">
          <mxGeometry relative="1" as="geometry" />
        </mxCell>
        <mxCell id="oR5quiYIj7cI1-wCYl7w-30" value="Projek" style="swimlane;fontStyle=1;align=center;verticalAlign=top;childLayout=stackLayout;horizontal=1;startSize=30;horizontalStack=0;resizeParent=1;resizeLast=0;collapsible=1;marginBottom=0;rounded=0;shadow=0;strokeWidth=1;" parent="WIyWlLk6GJQsqaUBKTNV-1" vertex="1">
          <mxGeometry x="880" y="380" width="240" height="180" as="geometry">
            <mxRectangle x="550" y="140" width="160" height="26" as="alternateBounds" />
          </mxGeometry>
        </mxCell>
        <mxCell id="oR5quiYIj7cI1-wCYl7w-31" value="+ jumlahProjek : int" style="text;align=left;verticalAlign=top;spacingLeft=4;spacingRight=4;overflow=hidden;rotatable=0;points=[[0,0.5],[1,0.5]];portConstraint=eastwest;" parent="oR5quiYIj7cI1-wCYl7w-30" vertex="1">
          <mxGeometry y="30" width="240" height="26" as="geometry" />
        </mxCell>
        <mxCell id="oR5quiYIj7cI1-wCYl7w-32" value="" style="line;html=1;strokeWidth=1;align=left;verticalAlign=middle;spacingTop=-1;spacingLeft=3;spacingRight=3;rotatable=0;labelPosition=right;points=[];portConstraint=eastwest;" parent="oR5quiYIj7cI1-wCYl7w-30" vertex="1">
          <mxGeometry y="56" width="240" height="8" as="geometry" />
        </mxCell>
        <mxCell id="oR5quiYIj7cI1-wCYl7w-33" value="+ prosesKehidupan() : void" style="text;align=left;verticalAlign=top;spacingLeft=4;spacingRight=4;overflow=hidden;rotatable=0;points=[[0,0.5],[1,0.5]];portConstraint=eastwest;" parent="oR5quiYIj7cI1-wCYl7w-30" vertex="1">
          <mxGeometry y="64" width="240" height="26" as="geometry" />
        </mxCell>
        <mxCell id="oR5quiYIj7cI1-wCYl7w-34" value="+ memenuhiKriteria() : void" style="text;align=left;verticalAlign=top;spacingLeft=4;spacingRight=4;overflow=hidden;rotatable=0;points=[[0,0.5],[1,0.5]];portConstraint=eastwest;" parent="oR5quiYIj7cI1-wCYl7w-30" vertex="1">
          <mxGeometry y="90" width="240" height="26" as="geometry" />
        </mxCell>
        <mxCell id="oR5quiYIj7cI1-wCYl7w-35" value="+ getJumlahProjek : int" style="text;align=left;verticalAlign=top;spacingLeft=4;spacingRight=4;overflow=hidden;rotatable=0;points=[[0,0.5],[1,0.5]];portConstraint=eastwest;" parent="oR5quiYIj7cI1-wCYl7w-30" vertex="1">
          <mxGeometry y="116" width="240" height="26" as="geometry" />
        </mxCell>
        <mxCell id="oR5quiYIj7cI1-wCYl7w-36" value="+ setJumlahProjek : void" style="text;align=left;verticalAlign=top;spacingLeft=4;spacingRight=4;overflow=hidden;rotatable=0;points=[[0,0.5],[1,0.5]];portConstraint=eastwest;" parent="oR5quiYIj7cI1-wCYl7w-30" vertex="1">
          <mxGeometry y="142" width="240" height="26" as="geometry" />
        </mxCell>
        <mxCell id="oR5quiYIj7cI1-wCYl7w-44" value="Main" style="swimlane;fontStyle=1;align=center;verticalAlign=top;childLayout=stackLayout;horizontal=1;startSize=30;horizontalStack=0;resizeParent=1;resizeLast=0;collapsible=1;marginBottom=0;rounded=0;shadow=0;strokeWidth=1;" parent="WIyWlLk6GJQsqaUBKTNV-1" vertex="1">
          <mxGeometry x="850" y="60" width="240" height="240" as="geometry">
            <mxRectangle x="550" y="140" width="160" height="26" as="alternateBounds" />
          </mxGeometry>
        </mxCell>
        <mxCell id="oR5quiYIj7cI1-wCYl7w-45" value="+ dataKaryawan: Arraylist&lt;Karyawan&gt;" style="text;align=left;verticalAlign=top;spacingLeft=4;spacingRight=4;overflow=hidden;rotatable=0;points=[[0,0.5],[1,0.5]];portConstraint=eastwest;" parent="oR5quiYIj7cI1-wCYl7w-44" vertex="1">
          <mxGeometry y="30" width="240" height="26" as="geometry" />
        </mxCell>
        <mxCell id="oR5quiYIj7cI1-wCYl7w-46" value="" style="line;html=1;strokeWidth=1;align=left;verticalAlign=middle;spacingTop=-1;spacingLeft=3;spacingRight=3;rotatable=0;labelPosition=right;points=[];portConstraint=eastwest;" parent="oR5quiYIj7cI1-wCYl7w-44" vertex="1">
          <mxGeometry y="56" width="240" height="8" as="geometry" />
        </mxCell>
        <mxCell id="oR5quiYIj7cI1-wCYl7w-52" value="+ main() : void" style="text;align=left;verticalAlign=top;spacingLeft=4;spacingRight=4;overflow=hidden;rotatable=0;points=[[0,0.5],[1,0.5]];portConstraint=eastwest;" parent="oR5quiYIj7cI1-wCYl7w-44" vertex="1">
          <mxGeometry y="64" width="240" height="26" as="geometry" />
        </mxCell>
        <mxCell id="oR5quiYIj7cI1-wCYl7w-47" value="+ menuAwal() : void" style="text;align=left;verticalAlign=top;spacingLeft=4;spacingRight=4;overflow=hidden;rotatable=0;points=[[0,0.5],[1,0.5]];portConstraint=eastwest;" parent="oR5quiYIj7cI1-wCYl7w-44" vertex="1">
          <mxGeometry y="90" width="240" height="26" as="geometry" />
        </mxCell>
        <mxCell id="oR5quiYIj7cI1-wCYl7w-48" value="+ tambahDataKaryawan() : void" style="text;align=left;verticalAlign=top;spacingLeft=4;spacingRight=4;overflow=hidden;rotatable=0;points=[[0,0.5],[1,0.5]];portConstraint=eastwest;" parent="oR5quiYIj7cI1-wCYl7w-44" vertex="1">
          <mxGeometry y="116" width="240" height="26" as="geometry" />
        </mxCell>
        <mxCell id="oR5quiYIj7cI1-wCYl7w-49" value="+ inputPendidikan : String" style="text;align=left;verticalAlign=top;spacingLeft=4;spacingRight=4;overflow=hidden;rotatable=0;points=[[0,0.5],[1,0.5]];portConstraint=eastwest;" parent="oR5quiYIj7cI1-wCYl7w-44" vertex="1">
          <mxGeometry y="142" width="240" height="26" as="geometry" />
        </mxCell>
        <mxCell id="oR5quiYIj7cI1-wCYl7w-50" value="+ inputPengalaman : String" style="text;align=left;verticalAlign=top;spacingLeft=4;spacingRight=4;overflow=hidden;rotatable=0;points=[[0,0.5],[1,0.5]];portConstraint=eastwest;" parent="oR5quiYIj7cI1-wCYl7w-44" vertex="1">
          <mxGeometry y="168" width="240" height="26" as="geometry" />
        </mxCell>
        <mxCell id="oR5quiYIj7cI1-wCYl7w-51" value="+ inputProjek : int" style="text;align=left;verticalAlign=top;spacingLeft=4;spacingRight=4;overflow=hidden;rotatable=0;points=[[0,0.5],[1,0.5]];portConstraint=eastwest;" parent="oR5quiYIj7cI1-wCYl7w-44" vertex="1">
          <mxGeometry y="194" width="240" height="26" as="geometry" />
        </mxCell>
      </root>
    </mxGraphModel>
  </diagram>
</mxfile>
